<svg width="1095" height="1095" viewBox="0 0 1095 1095" fill="none" xmlns="http://www.w3.org/2000/svg">
<g clip-path="url(#clip0_897_3642)">
<rect width="1095" height="1095" fill="white"/>
<path d="M873.483 1034.35C838.442 1050.22 798.208 1063.88 752.358 1075.01C736.465 1078.86 719.941 1082.42 702.682 1085.62C568.288 1110.64 420.461 1103.46 296.871 1063.32C294.774 1062.66 292.677 1061.96 290.629 1061.2C259.733 1050.92 230.358 1038.53 203.184 1024.06C159.326 1000.68 121.14 971.854 91.0286 937.628C40.3526 879.789 13.0254 806.495 21.0514 717.624C48.9062 411.744 195.838 263.946 195.838 263.946C420.148 -42.8722 746.067 14.4574 854.758 175.727C951.646 319.536 1041.67 604.705 1060.44 681.751C1094.27 820.446 1049.53 954.722 873.483 1034.35Z" fill="#FBFBFB"/>
<path d="M893.844 874.87C893.844 874.87 896.762 895.639 953.156 915.079C956.803 916.337 960.372 912.324 961.255 908.564C962.013 905.352 960.816 901.998 958.197 899.992L944.691 888.063L1008.13 878.513C1011.06 878.312 1013.34 875.871 1013.34 872.93C1013.34 869.712 1010.64 867.159 1007.43 867.341C996.539 867.954 974.565 868.969 976.547 866.981C978.479 865.05 1001.01 859.924 1012.8 857.343C1016.63 856.506 1018.87 852.563 1017.7 848.818C1016.7 845.666 1013.55 843.716 1010.28 844.235L971.876 851.796L1002.4 833.727C1005.95 830.939 1005.92 825.547 1002.33 822.807C999.906 820.951 996.553 820.908 994.08 822.699L964.721 838.73L980.045 819.552C981.397 816.344 979.919 812.645 976.73 811.251C973.961 810.04 970.716 810.943 968.976 813.417L943.5 836.5C943.5 836.5 935.469 834.971 893.849 853.185V874.87H893.844Z" fill="#FFDBC6"/>
<path d="M232.483 451.967L232.698 451.822L231.833 424.619V381.207C231.833 377.597 228.69 374.791 225.103 375.203C222.475 375.502 220.347 377.475 219.852 380.075L213.912 411.221L204.765 403.869L172.652 374.314C170.379 372.224 166.853 372.326 164.702 374.548C162.742 376.577 162.56 379.739 164.281 381.974L178.137 399.993L158.127 381.577C155.854 379.481 152.323 379.589 150.177 381.81C148.213 383.84 148.035 387.001 149.756 389.237L170.529 416.243L147.81 395.335C145.538 393.24 142.007 393.347 139.86 395.569C137.901 397.598 137.723 400.759 139.444 402.995L148.114 414.265L146.543 412.815C144.467 410.903 141.235 410.996 139.271 413.031C137.475 414.887 137.316 417.777 138.888 419.825L165.796 454.815L165.857 454.726L187.186 481.943L195.899 503.684L239.324 486.456L232.483 451.967Z" fill="#FFDBC6"/>
<path d="M686.774 1051.92C683.982 1060.93 681.476 1070.47 679.282 1080.36C668.578 1083.26 657.448 1085.94 645.822 1088.35C555.3 1107.18 455.728 1101.77 372.482 1071.56C371.07 1071.07 369.658 1070.54 368.278 1069.97L427.534 831.473L667.731 809.423C667.731 809.423 725.36 927.401 686.774 1051.92Z" fill="#8374F1"/>
<path d="M352.72 692.352L240.849 481.022L187.271 497.418L247.546 660.122C257.848 687.938 285.912 705.03 315.355 701.425L352.72 692.352Z" fill="#8374F1"/>
<path d="M452.6 708.29L402.375 727.744L377.262 737.471L297.528 590.863L318.432 571.269L423.279 472.969L452.6 708.29Z" fill="#F1B39A"/>
<path d="M678.193 837.875C678.193 837.875 526.067 878.888 427.534 831.468L426.131 800.791L412.569 508.043C412.616 503.554 413.084 499.158 414.066 494.902C418.228 475.308 431.369 458.426 450.215 450.569C456.575 447.904 463.683 445.939 471.446 445.285C508.671 442.152 517.883 460.296 517.883 460.296L575.825 452.019C575.825 452.019 633.673 450.897 654.717 476.804C655.839 478.114 656.821 479.517 657.71 481.013C672.301 505.565 676.696 725.546 677.819 807.384C678.099 826.324 678.193 837.875 678.193 837.875Z" fill="#F1B39A"/>
<path d="M423.184 737.462L417.146 577.049" stroke="#3A1066" stroke-width="0.5" stroke-miterlimit="10" stroke-linecap="round" stroke-linejoin="round"/>
<path d="M764.744 628.949L927.299 840.555L894.306 865.298L691.6 685.558L764.744 628.949Z" fill="#8374F1"/>
<path d="M795.385 615.462L676.322 727.931L658.458 703.8L618.334 649.647L651.677 472.969L766.952 587.263L795.385 615.462Z" fill="#F1B39A"/>
<path d="M676.332 727.917L613.063 636.969" stroke="#3A1066" stroke-width="0.5" stroke-miterlimit="10" stroke-linecap="round" stroke-linejoin="round"/>
<path d="M468.042 202.726C468.042 202.726 543.066 168.55 588.77 232.454C618.919 274.608 607.158 360.599 549.02 383.63C493.636 405.572 509.354 225.112 509.354 225.112L468.042 202.726Z" fill="#8374F1"/>
<path d="M476.595 392.988L481.202 451.813C482.778 472.474 496.349 482.551 516.673 480.835C534.022 479.371 549.567 469.046 550.264 451.649L538.563 359.425L476.595 392.988Z" fill="#FFDBC6"/>
<path d="M549.632 446.669C549.632 446.669 569.942 450.485 575.811 451.996C575.811 451.996 557.694 496.212 498.845 491.989C432.131 487.205 471.46 445.285 471.46 445.285L496.909 440.852L549.632 446.669Z" fill="#FFDBC6"/>
<path d="M479.461 430.815L538.979 380.983L476 386.969L479.461 430.815Z" fill="#F0A7A4"/>
<path d="M654.717 476.804C645.551 486.672 623.385 482.743 613.05 487.186C600.704 492.564 602.715 507.248 575.825 513.234C548.888 519.267 537.244 508.558 528.546 513.234C519.894 517.91 509.84 536.616 481.781 527.965C453.722 519.267 465.741 507.903 435.858 507.248C422.904 506.968 416.825 501.262 414.066 494.902C418.228 475.308 431.369 458.426 450.215 450.569C456.575 447.904 463.683 445.939 471.446 445.285C508.671 442.152 517.883 460.296 517.883 460.296L575.825 452.019C575.825 452.019 633.673 450.897 654.717 476.804Z" fill="#EFE0D3"/>
<path d="M426.511 280.474L426.511 280.473C424.694 245.024 451.324 214.523 486.693 211.541C504.801 210.015 523.407 215.841 537.868 226.579C552.326 237.315 562.624 252.95 564.15 271.035L565.997 324.944C567.418 366.5 536.093 398.496 494.637 401.992C459.974 402.598 430.983 375.714 429.537 347.477L426.511 280.474Z" fill="#FFDBC6" stroke="black" stroke-width="0.5"/>
<path d="M522.491 271.076C565.612 287.865 541.856 385.398 541.856 385.398C541.856 385.398 623.549 309.788 597.688 261.663C588.724 244.972 504.832 264.202 522.491 271.076Z" fill="#8374F1"/>
<path d="M465.409 324.496L463.674 341.612L472.746 341.977" stroke="#201D2D" stroke-width="0.9244" stroke-miterlimit="10" stroke-linecap="round" stroke-linejoin="round"/>
<path d="M503.639 284.433C503.639 284.433 488.614 283.123 488.445 289.441C488.445 289.441 488.445 293.72 501.558 294.599C514.671 295.478 518.08 294.496 519.291 290.479C520.498 286.462 510.691 284.489 503.639 284.433Z" fill="#201D2D"/>
<path d="M443.499 286.088C443.499 286.088 455.91 284.797 456.906 290.732C456.906 290.732 457.486 294.749 446.623 295.633C435.759 296.512 432.229 295.081 431.209 291.835C430.059 288.155 437.602 286.172 443.499 286.088Z" fill="#201D2D"/>
<path d="M454.991 316.27C455.098 319.866 452.358 322.873 448.878 322.981C445.394 323.088 442.486 320.264 442.378 316.667C442.271 313.071 445.011 310.069 448.495 309.957C451.974 309.849 454.883 312.674 454.991 316.27Z" fill="#201D2D"/>
<path d="M516.536 314.507C516.644 318.103 513.903 321.106 510.419 321.218C506.935 321.325 504.027 318.501 503.919 314.905C503.816 311.308 506.552 308.301 510.036 308.194C513.52 308.082 516.429 310.906 516.536 314.507Z" fill="#201D2D"/>
<path d="M461.476 315.264H475.23" stroke="#4D4D4D" stroke-width="0.9001" stroke-miterlimit="10"/>
<path d="M533.242 312.916L546.383 306.655" stroke="#4D4D4D" stroke-width="0.9001" stroke-miterlimit="10"/>
<path d="M532.288 314.703C532.288 331.042 519.591 344.286 503.925 344.286C488.259 344.286 475.558 331.042 475.558 314.703C475.558 298.363 488.259 285.115 503.925 285.115C519.587 285.115 532.288 298.363 532.288 314.703Z" stroke="#4D4D4D" stroke-width="0.9001" stroke-miterlimit="10"/>
<path d="M461.57 312.916C461.57 328.269 449.636 340.718 434.914 340.718C420.193 340.718 408.259 328.274 408.259 312.916C408.259 297.564 420.193 285.115 434.914 285.115C449.636 285.115 461.57 297.564 461.57 312.916Z" stroke="#4D4D4D" stroke-width="0.9001" stroke-miterlimit="10"/>
<path d="M468.042 202.725C468.042 202.725 412.27 217.722 424.869 285.12L438.304 273.84C456.262 258.763 481.73 256.523 502.049 268.228L557.096 299.944L578.098 225.925L530 209.959L468.042 202.725Z" fill="#8374F1"/>
<path d="M468.349 358.639L501.81 354.594C501.81 354.594 498.153 366.931 486.845 369.559C475.542 372.192 468.349 358.639 468.349 358.639Z" fill="#4D4D4D"/>
<path d="M543.483 380.983C543.483 380.983 521.428 400.769 497.569 402.251C497.569 402.251 484.559 402.691 476.6 400.049C476.6 400.049 469.664 407.372 468.654 415.664C467.644 423.955 470.272 430.811 470.272 430.811C470.272 430.811 441.124 448.796 435.882 459.127C435.882 459.127 437.715 495.341 481.398 499.793C525.076 504.241 552.176 492.11 579.478 477.954C606.779 463.799 627.061 459.571 627.061 459.571C627.061 459.571 586.759 424.025 578.467 402.251C570.176 380.478 571.392 362.244 571.392 362.244L543.483 380.983Z" fill="#8374F1"/>
<path d="M402.375 727.743L377.262 737.47L297.528 590.863L318.432 571.268C327.738 579.733 346.023 600.403 352.711 636.973C361.877 686.964 396.95 686.964 401.954 721.009C402.281 723.347 402.422 725.592 402.375 727.743Z" fill="#EFE0D3"/>
<path d="M795.386 615.461L676.323 727.931L658.458 703.8C660.984 697.814 665.847 690.098 675.06 682.709C694.467 667.183 728.465 678.687 737.678 636.973C743.009 612.936 756.477 596.709 766.953 587.262L795.386 615.461Z" fill="#EFE0D3"/>
<path d="M568.641 414.045C568.641 414.045 560.289 423.73 527.222 427.743C494.154 431.751 480.789 426.55 481.126 431.489C481.458 436.427 509.184 438.564 541.588 430.815" stroke="#3D212C" stroke-width="0.5" stroke-miterlimit="10"/>
<path d="M543.483 380.983C543.483 380.983 556.502 369.619 561.408 357.928" stroke="#3D212C" stroke-width="0.5" stroke-miterlimit="10"/>
<path d="M446.385 459.473C446.385 459.473 456.075 478.525 490.48 481.027C524.885 483.528 543.483 470.252 543.483 470.252" stroke="#3D212C" stroke-width="0.5" stroke-miterlimit="10"/>
<path d="M541.748 290.928C541.748 290.928 533.709 251.038 513.432 236.34" stroke="#3D212C" stroke-width="0.5" stroke-miterlimit="10"/>
<path d="M437.368 232.665C437.368 232.665 459.413 212.621 493.818 223.98" stroke="#3D212C" stroke-width="0.5" stroke-miterlimit="10"/>
<path d="M214.066 414.378C214.066 414.378 205.045 430.914 207.552 447.95" stroke="#4D4D4D" stroke-width="0.5" stroke-miterlimit="10"/>
<path d="M188.566 400.348L161.957 433.921" stroke="#4D4D4D" stroke-width="0.5" stroke-miterlimit="10"/>
<path d="M204.045 475.008L210.587 470C210.587 470 218.074 470.5 223.583 467.493" stroke="#4D4D4D" stroke-width="0.5" stroke-miterlimit="10"/>
<path d="M148.115 414.261L164.141 431.166" stroke="#4D4D4D" stroke-width="0.5" stroke-miterlimit="10"/>
<path d="M147.81 395.331L173.671 419.143" stroke="#4D4D4D" stroke-width="0.5" stroke-miterlimit="10"/>
<path d="M158.45 384.317L184.222 405.829" stroke="#4D4D4D" stroke-width="0.5" stroke-miterlimit="10"/>
<path d="M930.738 882.694L944.687 888.067" stroke="#181818" stroke-width="0.5" stroke-miterlimit="10"/>
<path d="M664.846 854.346C664.846 854.346 536.926 908.167 435.877 854.346" stroke="#3D212C" stroke-width="0.5" stroke-miterlimit="10"/>
<path d="M452.599 928.79C452.599 928.79 470.547 1028.65 475.556 1062.41" stroke="#3D212C" stroke-width="0.5" stroke-miterlimit="10"/>
<path d="M452.599 1008.96L459.941 1069.08" stroke="#3D212C" stroke-width="0.5" stroke-miterlimit="10"/>
<path d="M678.193 837.875C678.193 837.875 526.068 878.887 427.534 831.468L426.131 800.79C440.956 803.316 467.752 809.629 496.232 825.155C539.255 848.631 575.825 804.672 618.334 813.978C643.354 819.449 664.632 813.323 677.819 807.384C678.1 826.324 678.193 837.875 678.193 837.875Z" fill="#EFE0D3"/>
<path d="M1024.06 402.192H701.47C675.192 402.192 653.886 388.57 653.886 371.768V230.222C653.886 213.421 675.185 199.799 701.47 199.799H862.766H1024.06C1050.34 199.799 1071.65 213.421 1071.65 230.222V371.768C1071.65 388.57 1050.34 402.192 1024.06 402.192Z" fill="#8374F1"/>
<path d="M717.486 395.256L701.717 433.075C699.725 437.854 705.046 442.367 709.433 439.626L763.61 405.797C767.898 403.117 766.374 396.528 761.347 396.004L722.939 392.01C720.605 391.772 718.388 393.091 717.486 395.256Z" fill="#8374F1"/>
<path d="M721.301 270.466V275.528H703.348V270.466H721.301ZM705.106 256.38V290.505H698.661V256.38H705.106ZM726.083 256.38V290.505H719.637V256.38H726.083ZM743.567 290.973C741.645 290.973 739.918 290.661 738.387 290.036C736.856 289.411 735.551 288.544 734.473 287.434C733.411 286.309 732.59 285.005 732.012 283.52C731.45 282.02 731.168 280.411 731.168 278.692V277.755C731.168 275.802 731.45 274.028 732.012 272.434C732.575 270.825 733.372 269.442 734.403 268.286C735.434 267.13 736.668 266.239 738.106 265.614C739.543 264.989 741.129 264.677 742.864 264.677C744.661 264.677 746.247 264.981 747.622 265.591C748.997 266.184 750.145 267.028 751.067 268.122C751.989 269.216 752.684 270.528 753.153 272.059C753.622 273.575 753.856 275.255 753.856 277.098V279.7H733.981V275.434H747.762V274.966C747.731 273.981 747.543 273.083 747.2 272.27C746.856 271.442 746.325 270.786 745.606 270.302C744.887 269.802 743.958 269.552 742.817 269.552C741.895 269.552 741.09 269.755 740.403 270.161C739.731 270.552 739.168 271.114 738.715 271.848C738.278 272.567 737.95 273.427 737.731 274.427C737.512 275.427 737.403 276.536 737.403 277.755V278.692C737.403 279.755 737.543 280.739 737.825 281.645C738.122 282.552 738.551 283.341 739.114 284.012C739.692 284.669 740.379 285.184 741.176 285.559C741.989 285.919 742.911 286.098 743.942 286.098C745.239 286.098 746.411 285.848 747.458 285.348C748.52 284.833 749.442 284.075 750.223 283.075L753.34 286.309C752.809 287.091 752.09 287.841 751.184 288.559C750.293 289.278 749.215 289.864 747.95 290.317C746.684 290.755 745.223 290.973 743.567 290.973ZM764.567 254.505V290.505H758.356V254.505H764.567ZM777.036 254.505V290.505H770.825V254.505H777.036ZM781.84 278.083V277.591C781.84 275.731 782.106 274.02 782.637 272.458C783.168 270.88 783.942 269.512 784.958 268.356C785.973 267.2 787.215 266.302 788.684 265.661C790.153 265.005 791.825 264.677 793.7 264.677C795.606 264.677 797.293 265.005 798.762 265.661C800.247 266.302 801.497 267.2 802.512 268.356C803.528 269.512 804.301 270.88 804.833 272.458C805.364 274.02 805.629 275.731 805.629 277.591V278.083C805.629 279.927 805.364 281.637 804.833 283.216C804.301 284.778 803.528 286.145 802.512 287.317C801.497 288.473 800.254 289.372 798.786 290.012C797.317 290.653 795.637 290.973 793.747 290.973C791.872 290.973 790.192 290.653 788.708 290.012C787.223 289.372 785.973 288.473 784.958 287.317C783.942 286.145 783.168 284.778 782.637 283.216C782.106 281.637 781.84 279.927 781.84 278.083ZM788.028 277.591V278.083C788.028 279.192 788.137 280.231 788.356 281.2C788.575 282.169 788.911 283.02 789.364 283.755C789.817 284.489 790.403 285.067 791.122 285.489C791.856 285.895 792.731 286.098 793.747 286.098C794.747 286.098 795.606 285.895 796.325 285.489C797.043 285.067 797.629 284.489 798.083 283.755C798.551 283.02 798.895 282.169 799.114 281.2C799.333 280.231 799.442 279.192 799.442 278.083V277.591C799.442 276.497 799.333 275.473 799.114 274.52C798.895 273.552 798.551 272.7 798.083 271.966C797.629 271.216 797.036 270.63 796.301 270.208C795.583 269.77 794.715 269.552 793.7 269.552C792.7 269.552 791.84 269.77 791.122 270.208C790.403 270.63 789.817 271.216 789.364 271.966C788.911 272.7 788.575 273.552 788.356 274.52C788.137 275.473 788.028 276.497 788.028 277.591ZM817.184 256.38L816.504 280.262H811.278L810.598 256.38H817.184ZM810.411 287.622C810.411 286.7 810.723 285.927 811.348 285.302C811.989 284.661 812.848 284.341 813.926 284.341C815.004 284.341 815.856 284.661 816.481 285.302C817.122 285.927 817.442 286.7 817.442 287.622C817.442 288.528 817.122 289.294 816.481 289.919C815.856 290.544 815.004 290.856 813.926 290.856C812.848 290.856 811.989 290.544 811.348 289.919C810.723 289.294 810.411 288.528 810.411 287.622ZM726.083 312.38V346.505H719.614L705.106 322.833V346.505H698.661V312.38H705.106L719.661 336.075V312.38H726.083ZM738.739 321.145V346.505H732.528V321.145H738.739ZM732.106 314.512C732.106 313.591 732.418 312.825 733.043 312.216C733.684 311.606 734.543 311.302 735.622 311.302C736.7 311.302 737.551 311.606 738.176 312.216C738.817 312.825 739.137 313.591 739.137 314.512C739.137 315.419 738.817 316.177 738.176 316.786C737.551 317.395 736.7 317.7 735.622 317.7C734.543 317.7 733.684 317.395 733.043 316.786C732.418 316.177 732.106 315.419 732.106 314.512ZM755.051 342.098C755.926 342.098 756.708 341.927 757.395 341.583C758.083 341.239 758.629 340.755 759.036 340.13C759.458 339.505 759.684 338.778 759.715 337.95H765.551C765.52 339.669 765.036 341.208 764.098 342.567C763.161 343.927 761.911 345.005 760.348 345.802C758.801 346.583 757.067 346.973 755.145 346.973C753.192 346.973 751.489 346.645 750.036 345.989C748.583 345.333 747.372 344.419 746.403 343.247C745.45 342.075 744.731 340.716 744.247 339.169C743.778 337.622 743.543 335.966 743.543 334.2V333.45C743.543 331.684 743.778 330.028 744.247 328.481C744.731 326.934 745.45 325.575 746.403 324.403C747.372 323.231 748.583 322.317 750.036 321.661C751.489 321.005 753.184 320.677 755.122 320.677C757.168 320.677 758.965 321.075 760.512 321.872C762.075 322.669 763.293 323.794 764.168 325.247C765.059 326.7 765.52 328.411 765.551 330.38H759.715C759.684 329.473 759.481 328.661 759.106 327.942C758.731 327.223 758.2 326.645 757.512 326.208C756.825 325.77 755.989 325.552 755.004 325.552C753.958 325.552 753.083 325.77 752.379 326.208C751.692 326.645 751.153 327.247 750.762 328.012C750.387 328.762 750.122 329.606 749.965 330.544C749.825 331.466 749.754 332.434 749.754 333.45V334.2C749.754 335.231 749.825 336.216 749.965 337.153C750.122 338.091 750.387 338.934 750.762 339.684C751.153 340.419 751.692 341.005 752.379 341.442C753.083 341.88 753.973 342.098 755.051 342.098ZM781.067 346.973C779.145 346.973 777.418 346.661 775.887 346.036C774.356 345.411 773.051 344.544 771.973 343.434C770.911 342.309 770.09 341.005 769.512 339.52C768.95 338.02 768.668 336.411 768.668 334.692V333.755C768.668 331.802 768.95 330.028 769.512 328.434C770.075 326.825 770.872 325.442 771.903 324.286C772.934 323.13 774.168 322.239 775.606 321.614C777.043 320.989 778.629 320.677 780.364 320.677C782.161 320.677 783.747 320.981 785.122 321.591C786.497 322.184 787.645 323.028 788.567 324.122C789.489 325.216 790.184 326.528 790.653 328.059C791.122 329.575 791.356 331.255 791.356 333.098V335.7H771.481V331.434H785.262V330.966C785.231 329.981 785.043 329.083 784.7 328.27C784.356 327.442 783.825 326.786 783.106 326.302C782.387 325.802 781.458 325.552 780.317 325.552C779.395 325.552 778.59 325.755 777.903 326.161C777.231 326.552 776.668 327.114 776.215 327.848C775.778 328.567 775.45 329.427 775.231 330.427C775.012 331.427 774.903 332.536 774.903 333.755V334.692C774.903 335.755 775.043 336.739 775.325 337.645C775.622 338.552 776.051 339.341 776.614 340.012C777.192 340.669 777.879 341.184 778.676 341.559C779.489 341.919 780.411 342.098 781.442 342.098C782.739 342.098 783.911 341.848 784.958 341.348C786.02 340.833 786.942 340.075 787.723 339.075L790.84 342.309C790.309 343.091 789.59 343.841 788.684 344.559C787.793 345.278 786.715 345.864 785.45 346.317C784.184 346.755 782.723 346.973 781.067 346.973ZM819.458 321.145V325.598H804.926V321.145H819.458ZM808.817 314.911H815.028V339.192C815.028 339.942 815.129 340.52 815.333 340.927C815.536 341.333 815.84 341.606 816.247 341.747C816.653 341.887 817.137 341.958 817.7 341.958C818.106 341.958 818.481 341.934 818.825 341.887C819.168 341.841 819.458 341.794 819.692 341.747L819.715 346.387C819.2 346.559 818.614 346.7 817.958 346.809C817.317 346.919 816.59 346.973 815.778 346.973C814.387 346.973 813.168 346.739 812.122 346.27C811.075 345.786 810.262 345.012 809.684 343.95C809.106 342.872 808.817 341.45 808.817 339.684V314.911ZM821.872 334.083V333.591C821.872 331.731 822.137 330.02 822.668 328.458C823.2 326.88 823.973 325.512 824.989 324.356C826.004 323.2 827.247 322.302 828.715 321.661C830.184 321.005 831.856 320.677 833.731 320.677C835.637 320.677 837.325 321.005 838.793 321.661C840.278 322.302 841.528 323.2 842.543 324.356C843.559 325.512 844.333 326.88 844.864 328.458C845.395 330.02 845.661 331.731 845.661 333.591V334.083C845.661 335.927 845.395 337.637 844.864 339.216C844.333 340.778 843.559 342.145 842.543 343.317C841.528 344.473 840.286 345.372 838.817 346.012C837.348 346.653 835.668 346.973 833.778 346.973C831.903 346.973 830.223 346.653 828.739 346.012C827.254 345.372 826.004 344.473 824.989 343.317C823.973 342.145 823.2 340.778 822.668 339.216C822.137 337.637 821.872 335.927 821.872 334.083ZM828.059 333.591V334.083C828.059 335.192 828.168 336.231 828.387 337.2C828.606 338.169 828.942 339.02 829.395 339.755C829.848 340.489 830.434 341.067 831.153 341.489C831.887 341.895 832.762 342.098 833.778 342.098C834.778 342.098 835.637 341.895 836.356 341.489C837.075 341.067 837.661 340.489 838.114 339.755C838.583 339.02 838.926 338.169 839.145 337.2C839.364 336.231 839.473 335.192 839.473 334.083V333.591C839.473 332.497 839.364 331.473 839.145 330.52C838.926 329.552 838.583 328.7 838.114 327.966C837.661 327.216 837.067 326.63 836.333 326.208C835.614 325.77 834.747 325.552 833.731 325.552C832.731 325.552 831.872 325.77 831.153 326.208C830.434 326.63 829.848 327.216 829.395 327.966C828.942 328.7 828.606 329.552 828.387 330.52C828.168 331.473 828.059 332.497 828.059 333.591ZM876.059 339.567C876.059 339.036 875.918 338.559 875.637 338.137C875.356 337.716 874.825 337.333 874.043 336.989C873.278 336.63 872.153 336.294 870.668 335.981C869.356 335.7 868.145 335.348 867.036 334.927C865.926 334.505 864.973 333.997 864.176 333.403C863.379 332.794 862.754 332.083 862.301 331.27C861.864 330.442 861.645 329.489 861.645 328.411C861.645 327.364 861.872 326.38 862.325 325.458C862.778 324.52 863.434 323.7 864.293 322.997C865.153 322.278 866.2 321.716 867.434 321.309C868.668 320.887 870.059 320.677 871.606 320.677C873.762 320.677 875.614 321.028 877.161 321.731C878.723 322.434 879.918 323.403 880.747 324.637C881.575 325.856 881.989 327.231 881.989 328.762H875.801C875.801 328.091 875.645 327.481 875.333 326.934C875.036 326.387 874.575 325.95 873.95 325.622C873.325 325.278 872.536 325.106 871.583 325.106C870.723 325.106 869.997 325.247 869.403 325.528C868.825 325.809 868.387 326.177 868.09 326.63C867.793 327.083 867.645 327.583 867.645 328.13C867.645 328.536 867.723 328.903 867.879 329.231C868.051 329.544 868.325 329.833 868.7 330.098C869.075 330.364 869.583 330.606 870.223 330.825C870.879 331.044 871.684 331.255 872.637 331.458C874.528 331.833 876.176 332.333 877.583 332.958C879.004 333.567 880.114 334.38 880.911 335.395C881.708 336.411 882.106 337.708 882.106 339.286C882.106 340.411 881.864 341.442 881.379 342.38C880.895 343.302 880.192 344.106 879.27 344.794C878.348 345.481 877.247 346.02 875.965 346.411C874.684 346.786 873.239 346.973 871.629 346.973C869.301 346.973 867.333 346.559 865.723 345.731C864.114 344.887 862.895 343.825 862.067 342.544C861.239 341.247 860.825 339.903 860.825 338.512H866.754C866.801 339.497 867.067 340.286 867.551 340.88C868.036 341.473 868.645 341.903 869.379 342.169C870.129 342.419 870.918 342.544 871.747 342.544C872.684 342.544 873.473 342.419 874.114 342.169C874.754 341.903 875.239 341.552 875.567 341.114C875.895 340.661 876.059 340.145 876.059 339.567ZM898.208 346.973C896.286 346.973 894.559 346.661 893.028 346.036C891.497 345.411 890.192 344.544 889.114 343.434C888.051 342.309 887.231 341.005 886.653 339.52C886.09 338.02 885.809 336.411 885.809 334.692V333.755C885.809 331.802 886.09 330.028 886.653 328.434C887.215 326.825 888.012 325.442 889.043 324.286C890.075 323.13 891.309 322.239 892.747 321.614C894.184 320.989 895.77 320.677 897.504 320.677C899.301 320.677 900.887 320.981 902.262 321.591C903.637 322.184 904.786 323.028 905.708 324.122C906.629 325.216 907.325 326.528 907.793 328.059C908.262 329.575 908.497 331.255 908.497 333.098V335.7H888.622V331.434H902.403V330.966C902.372 329.981 902.184 329.083 901.84 328.27C901.497 327.442 900.965 326.786 900.247 326.302C899.528 325.802 898.598 325.552 897.458 325.552C896.536 325.552 895.731 325.755 895.043 326.161C894.372 326.552 893.809 327.114 893.356 327.848C892.918 328.567 892.59 329.427 892.372 330.427C892.153 331.427 892.043 332.536 892.043 333.755V334.692C892.043 335.755 892.184 336.739 892.465 337.645C892.762 338.552 893.192 339.341 893.754 340.012C894.333 340.669 895.02 341.184 895.817 341.559C896.629 341.919 897.551 342.098 898.583 342.098C899.879 342.098 901.051 341.848 902.098 341.348C903.161 340.833 904.083 340.075 904.864 339.075L907.981 342.309C907.45 343.091 906.731 343.841 905.825 344.559C904.934 345.278 903.856 345.864 902.59 346.317C901.325 346.755 899.864 346.973 898.208 346.973ZM924.036 346.973C922.114 346.973 920.387 346.661 918.856 346.036C917.325 345.411 916.02 344.544 914.942 343.434C913.879 342.309 913.059 341.005 912.481 339.52C911.918 338.02 911.637 336.411 911.637 334.692V333.755C911.637 331.802 911.918 330.028 912.481 328.434C913.043 326.825 913.84 325.442 914.872 324.286C915.903 323.13 917.137 322.239 918.575 321.614C920.012 320.989 921.598 320.677 923.333 320.677C925.129 320.677 926.715 320.981 928.09 321.591C929.465 322.184 930.614 323.028 931.536 324.122C932.458 325.216 933.153 326.528 933.622 328.059C934.09 329.575 934.325 331.255 934.325 333.098V335.7H914.45V331.434H928.231V330.966C928.2 329.981 928.012 329.083 927.668 328.27C927.325 327.442 926.793 326.786 926.075 326.302C925.356 325.802 924.426 325.552 923.286 325.552C922.364 325.552 921.559 325.755 920.872 326.161C920.2 326.552 919.637 327.114 919.184 327.848C918.747 328.567 918.418 329.427 918.2 330.427C917.981 331.427 917.872 332.536 917.872 333.755V334.692C917.872 335.755 918.012 336.739 918.293 337.645C918.59 338.552 919.02 339.341 919.583 340.012C920.161 340.669 920.848 341.184 921.645 341.559C922.458 341.919 923.379 342.098 924.411 342.098C925.708 342.098 926.879 341.848 927.926 341.348C928.989 340.833 929.911 340.075 930.692 339.075L933.809 342.309C933.278 343.091 932.559 343.841 931.653 344.559C930.762 345.278 929.684 345.864 928.418 346.317C927.153 346.755 925.692 346.973 924.036 346.973ZM957.856 343.692L964.653 321.145H971.286L961.114 350.348C960.879 350.973 960.575 351.653 960.2 352.387C959.84 353.122 959.356 353.817 958.747 354.473C958.137 355.145 957.372 355.692 956.45 356.114C955.543 356.536 954.442 356.747 953.145 356.747C952.583 356.747 952.083 356.708 951.645 356.63C951.208 356.552 950.747 356.45 950.262 356.325V351.684C950.418 351.7 950.598 351.708 950.801 351.708C951.02 351.723 951.208 351.731 951.364 351.731C952.27 351.731 953.02 351.622 953.614 351.403C954.208 351.2 954.684 350.864 955.043 350.395C955.418 349.942 955.731 349.348 955.981 348.614L957.856 343.692ZM954.504 321.145L960.247 339.825L961.254 346.364L956.989 347.137L947.825 321.145H954.504ZM972.809 334.083V333.591C972.809 331.731 973.075 330.02 973.606 328.458C974.137 326.88 974.911 325.512 975.926 324.356C976.942 323.2 978.184 322.302 979.653 321.661C981.122 321.005 982.793 320.677 984.668 320.677C986.575 320.677 988.262 321.005 989.731 321.661C991.215 322.302 992.465 323.2 993.481 324.356C994.497 325.512 995.27 326.88 995.801 328.458C996.333 330.02 996.598 331.731 996.598 333.591V334.083C996.598 335.927 996.333 337.637 995.801 339.216C995.27 340.778 994.497 342.145 993.481 343.317C992.465 344.473 991.223 345.372 989.754 346.012C988.286 346.653 986.606 346.973 984.715 346.973C982.84 346.973 981.161 346.653 979.676 346.012C978.192 345.372 976.942 344.473 975.926 343.317C974.911 342.145 974.137 340.778 973.606 339.216C973.075 337.637 972.809 335.927 972.809 334.083ZM978.997 333.591V334.083C978.997 335.192 979.106 336.231 979.325 337.2C979.543 338.169 979.879 339.02 980.333 339.755C980.786 340.489 981.372 341.067 982.09 341.489C982.825 341.895 983.7 342.098 984.715 342.098C985.715 342.098 986.575 341.895 987.293 341.489C988.012 341.067 988.598 340.489 989.051 339.755C989.52 339.02 989.864 338.169 990.083 337.2C990.301 336.231 990.411 335.192 990.411 334.083V333.591C990.411 332.497 990.301 331.473 990.083 330.52C989.864 329.552 989.52 328.7 989.051 327.966C988.598 327.216 988.004 326.63 987.27 326.208C986.551 325.77 985.684 325.552 984.668 325.552C983.668 325.552 982.809 325.77 982.09 326.208C981.372 326.63 980.786 327.216 980.333 327.966C979.879 328.7 979.543 329.552 979.325 330.52C979.106 331.473 978.997 332.497 978.997 333.591ZM1016.19 340.481V321.145H1022.43V346.505H1016.57L1016.19 340.481ZM1016.99 335.231L1018.91 335.184C1018.91 336.887 1018.72 338.458 1018.35 339.895C1017.97 341.333 1017.39 342.583 1016.59 343.645C1015.81 344.692 1014.82 345.512 1013.61 346.106C1012.41 346.684 1010.99 346.973 1009.35 346.973C1008.1 346.973 1006.96 346.802 1005.93 346.458C1004.9 346.098 1004 345.544 1003.25 344.794C1002.52 344.028 1001.95 343.052 1001.54 341.864C1001.14 340.661 1000.93 339.216 1000.93 337.528V321.145H1007.12V337.575C1007.12 338.419 1007.22 339.122 1007.4 339.684C1007.61 340.247 1007.88 340.708 1008.22 341.067C1008.58 341.411 1009 341.661 1009.47 341.817C1009.95 341.958 1010.47 342.028 1011.01 342.028C1012.51 342.028 1013.69 341.731 1014.55 341.137C1015.43 340.528 1016.05 339.716 1016.43 338.7C1016.8 337.669 1016.99 336.512 1016.99 335.231ZM1034.97 312.38L1034.29 336.262H1029.06L1028.38 312.38H1034.97ZM1028.19 343.622C1028.19 342.7 1028.5 341.927 1029.13 341.302C1029.77 340.661 1030.63 340.341 1031.71 340.341C1032.79 340.341 1033.64 340.661 1034.26 341.302C1034.9 341.927 1035.22 342.7 1035.22 343.622C1035.22 344.528 1034.9 345.294 1034.26 345.919C1033.64 346.544 1032.79 346.856 1031.71 346.856C1030.63 346.856 1029.77 346.544 1029.13 345.919C1028.5 345.294 1028.19 344.528 1028.19 343.622Z" fill="white"/>
</g>
<defs>
<clipPath id="clip0_897_3642">
<rect width="1095" height="1095" fill="white"/>
</clipPath>
</defs>
</svg>
